<svg width="22" height="22" viewBox="0 0 22 22" fill="none" xmlns="http://www.w3.org/2000/svg">
<path d="M5.75 13.4405C5.34 13.4405 5 13.1005 5 12.6905V9.4805C5 9.0705 5.34 8.73047 5.75 8.73047C6.16 8.73047 6.5 9.0705 6.5 9.4805V12.6905C6.5 13.1105 6.16 13.4405 5.75 13.4405Z" fill="black"/>
<path d="M10.75 15.18C10.34 15.18 10 14.84 10 14.43V7.75C10 7.34 10.34 7 10.75 7C11.16 7 11.5 7.34 11.5 7.75V14.43C11.5 14.84 11.16 15.18 10.75 15.18Z" fill="black"/>
<path d="M15.75 13.4405C15.34 13.4405 15 13.1005 15 12.6905V9.4805C15 9.0705 15.34 8.73047 15.75 8.73047C16.16 8.73047 16.5 9.0705 16.5 9.4805V12.6905C16.5 13.1105 16.16 13.4405 15.75 13.4405Z" fill="black"/>
<path d="M13.75 21.5H7.75C2.32 21.5 0 19.18 0 13.75V7.75C0 2.32 2.32 0 7.75 0H13.75C19.18 0 21.5 2.32 21.5 7.75V13.75C21.5 19.18 19.18 21.5 13.75 21.5ZM7.75 1.5C3.14 1.5 1.5 3.14 1.5 7.75V13.75C1.5 18.36 3.14 20 7.75 20H13.75C18.36 20 20 18.36 20 13.75V7.75C20 3.14 18.36 1.5 13.75 1.5H7.75Z" fill="black"/>
</svg>
