<svg width="14" height="14" viewBox="0 0 14 14" fill="none" xmlns="http://www.w3.org/2000/svg">
<mask id="mask0_440_950" style="mask-type:luminance" maskUnits="userSpaceOnUse" x="0" y="0" width="14" height="14">
<path d="M13.4031 0H0V13.4031H13.4031V0Z" fill="white"/>
</mask>
<g mask="url(#mask0_440_950)">
<path d="M4.46767 3.2112C4.23871 3.2112 4.04883 3.02132 4.04883 2.79235V1.11697C4.04883 0.887997 4.23871 0.69812 4.46767 0.69812C4.69664 0.69812 4.88652 0.887997 4.88652 1.11697V2.79235C4.88652 3.02132 4.69664 3.2112 4.46767 3.2112Z" fill="#565656"/>
<path d="M8.93526 3.2112C8.7063 3.2112 8.51642 3.02132 8.51642 2.79235V1.11697C8.51642 0.887997 8.7063 0.69812 8.93526 0.69812C9.16423 0.69812 9.35411 0.887997 9.35411 1.11697V2.79235C9.35411 3.02132 9.16423 3.2112 8.93526 3.2112Z" fill="#565656"/>
<path d="M11.4483 5.49516H1.95443C1.72546 5.49516 1.53558 5.30529 1.53558 5.07632C1.53558 4.84735 1.72546 4.65747 1.95443 4.65747H11.4483C11.6772 4.65747 11.8671 4.84735 11.8671 5.07632C11.8671 5.30529 11.6772 5.49516 11.4483 5.49516Z" fill="#565656"/>
<path d="M8.93544 12.705H4.46775C2.42936 12.705 1.25659 11.5322 1.25659 9.49384V4.74692C1.25659 2.70854 2.42936 1.53577 4.46775 1.53577H8.93544C10.9738 1.53577 12.1466 2.70854 12.1466 4.74692V9.49384C12.1466 11.5322 10.9738 12.705 8.93544 12.705ZM4.46775 2.37346C2.87055 2.37346 2.09428 3.14972 2.09428 4.74692V9.49384C2.09428 11.091 2.87055 11.8673 4.46775 11.8673H8.93544C10.5326 11.8673 11.3089 11.091 11.3089 9.49384V4.74692C11.3089 3.14972 10.5326 2.37346 8.93544 2.37346H4.46775Z" fill="#565656"/>
<path d="M4.74706 8.09776C4.67446 8.09776 4.60186 8.081 4.53484 8.05308C4.46783 8.02516 4.4064 7.98607 4.35056 7.9358C4.3003 7.87996 4.26119 7.81853 4.23327 7.75151C4.20535 7.6845 4.1886 7.6119 4.1886 7.5393C4.1886 7.3941 4.25003 7.2489 4.35056 7.14279C4.4064 7.09253 4.46783 7.05343 4.53484 7.02551C4.63537 6.98083 4.74707 6.96967 4.85876 6.992C4.89227 6.99759 4.92577 7.00876 4.95928 7.02551C4.99278 7.03668 5.02629 7.05343 5.0598 7.07577C5.08772 7.09811 5.11564 7.12045 5.14356 7.14279C5.1659 7.17071 5.19382 7.19863 5.21058 7.22656C5.23292 7.26007 5.24968 7.29357 5.26085 7.32708C5.2776 7.36059 5.28877 7.3941 5.29436 7.4276C5.29994 7.4667 5.30552 7.5002 5.30552 7.5393C5.30552 7.6845 5.24409 7.8297 5.14356 7.9358C5.03745 8.03633 4.89226 8.09776 4.74706 8.09776Z" fill="#565656"/>
<path d="M6.70141 8.09822C6.55621 8.09822 6.41101 8.03679 6.3049 7.93627C6.28256 7.90834 6.26022 7.88042 6.23788 7.8525C6.21554 7.81899 6.19879 7.78554 6.18762 7.75203C6.17087 7.71852 6.1597 7.68502 6.15411 7.65151C6.14853 7.61242 6.14294 7.57885 6.14294 7.53976C6.14294 7.46716 6.1597 7.39456 6.18762 7.32754C6.21554 7.26053 6.25464 7.19915 6.3049 7.14331C6.46127 6.98694 6.71258 6.93662 6.91362 7.02598C6.98622 7.0539 7.04207 7.09305 7.09791 7.14331C7.19844 7.24942 7.25987 7.39456 7.25987 7.53976C7.25987 7.57885 7.25428 7.61242 7.2487 7.65151C7.24311 7.68502 7.23194 7.71852 7.21519 7.75203C7.20402 7.78554 7.18727 7.81899 7.16493 7.8525C7.14259 7.88042 7.12025 7.90834 7.09791 7.93627C7.04207 7.98653 6.98622 8.02568 6.91362 8.0536C6.84661 8.08152 6.77401 8.09822 6.70141 8.09822Z" fill="#565656"/>
<path d="M4.74706 10.0528C4.67446 10.0528 4.60186 10.0361 4.53484 10.0082C4.46783 9.98027 4.4064 9.94112 4.35056 9.89086C4.3003 9.83501 4.26119 9.77922 4.23327 9.70662C4.20535 9.63961 4.1886 9.56695 4.1886 9.49435C4.1886 9.34915 4.25003 9.20401 4.35056 9.0979C4.4064 9.04764 4.46783 9.00849 4.53484 8.98057C4.74148 8.89121 4.98719 8.94153 5.14356 9.0979C5.1659 9.12582 5.19382 9.15375 5.21058 9.18167C5.23292 9.21518 5.24968 9.24863 5.26085 9.28214C5.2776 9.31564 5.28877 9.34915 5.29436 9.38824C5.29994 9.42175 5.30552 9.46084 5.30552 9.49435C5.30552 9.63955 5.24409 9.78475 5.14356 9.89086C5.03745 9.99138 4.89226 10.0528 4.74706 10.0528Z" fill="#565656"/>
</g>
</svg>
