<svg width="18" height="18" viewBox="0 0 18 18" fill="none" xmlns="http://www.w3.org/2000/svg">
<mask id="mask0_440_1001" style="mask-type:luminance" maskUnits="userSpaceOnUse" x="0" y="0" width="18" height="18">
<path d="M17.6512 0H0V17.6512H17.6512V0Z" fill="white"/>
</mask>
<g mask="url(#mask0_440_1001)">
<path d="M8.01831 14.6138H12.7768C15.498 14.6138 16.1747 13.9372 16.1747 11.2159C15.2333 11.2159 14.4757 10.451 14.4757 9.517C14.4757 8.5756 15.2333 7.81071 16.1747 7.81071V7.13407C16.1747 4.41284 15.498 3.73621 12.7768 3.73621H8.0845V8.73005" stroke="#565656" stroke-width="1.1032" stroke-linecap="round" stroke-linejoin="round"/>
<path d="M8.08545 12.4074V14.6138H6.04818C4.95968 14.6138 4.31983 13.8709 3.61378 12.1647L3.48139 11.8337C4.37131 11.4807 4.80524 10.451 4.43015 9.56111C4.06977 8.67119 3.04747 8.24462 2.1502 8.61235L2.02517 8.2961C0.966092 5.70725 1.33383 4.80263 3.92268 3.7362L5.86432 2.94189L8.08545 8.32552V10.201" stroke="#565656" stroke-width="1.1032" stroke-linecap="round" stroke-linejoin="round"/>
<path d="M6.00379 14.6139H5.87799" stroke="#565656" stroke-width="1.1032" stroke-linecap="round" stroke-linejoin="round"/>
</g>
</svg>
