<svg width="20" height="20" viewBox="0 0 20 20" fill="none" xmlns="http://www.w3.org/2000/svg">
<mask id="mask0_440_980" style="mask-type:luminance" maskUnits="userSpaceOnUse" x="0" y="0" width="20" height="20">
<path d="M19.9839 0H0V19.9839H19.9839V0Z" fill="white"/>
</mask>
<g mask="url(#mask0_440_980)">
<path d="M17.4861 5.60411C17.4694 5.60411 17.4445 5.60411 17.4195 5.60411C13.0147 5.1628 8.61825 4.99627 4.26345 5.43758L2.56482 5.60411C2.2151 5.63742 1.90701 5.38762 1.87371 5.0379C1.8404 4.68818 2.0902 4.38843 2.43159 4.35512L4.13022 4.18859C8.55997 3.73895 13.048 3.91381 17.5444 4.35512C17.8858 4.38843 18.1356 4.69651 18.1023 5.0379C18.0773 5.36264 17.8025 5.60411 17.4861 5.60411Z" fill="black"/>
<path d="M7.07787 4.76277C7.04457 4.76277 7.01126 4.76277 6.96963 4.75444C6.63656 4.69616 6.40342 4.37142 6.4617 4.03835L6.64489 2.94757C6.77812 2.14821 6.9613 1.04077 8.90139 1.04077H11.083C13.0314 1.04077 13.2146 2.18984 13.3395 2.95589L13.5227 4.03835C13.581 4.37975 13.3478 4.70448 13.0147 4.75444C12.6734 4.81273 12.3486 4.57958 12.2987 4.24652L12.1155 3.16406C11.9989 2.43964 11.9739 2.29809 11.0913 2.29809H8.90972C8.02711 2.29809 8.01045 2.41466 7.88556 3.15573L7.69404 4.23819C7.64408 4.54628 7.37763 4.76277 7.07787 4.76277Z" fill="black"/>
<path d="M12.6647 18.9427H7.31906C4.41307 18.9427 4.29649 17.3356 4.2049 16.0367L3.66367 7.65176C3.63869 7.31036 3.90514 7.01061 4.24653 6.98563C4.59625 6.96897 4.88768 7.2271 4.91266 7.56849L5.45389 15.9534C5.54549 17.219 5.57879 17.6937 7.31906 17.6937H12.6647C14.4133 17.6937 14.4466 17.219 14.5299 15.9534L15.0711 7.56849C15.0961 7.2271 15.3959 6.96897 15.7373 6.98563C16.0787 7.01061 16.3451 7.30204 16.3201 7.65176L15.7789 16.0367C15.6873 17.3356 15.5707 18.9427 12.6647 18.9427Z" fill="black"/>
<path d="M11.3743 14.3634H8.60156C8.26016 14.3634 7.97705 14.0803 7.97705 13.7389C7.97705 13.3975 8.26016 13.1144 8.60156 13.1144H11.3743C11.7157 13.1144 11.9988 13.3975 11.9988 13.7389C11.9988 14.0803 11.7157 14.3634 11.3743 14.3634Z" fill="black"/>
<path d="M12.0736 11.0327H7.91032C7.56893 11.0327 7.28583 10.7496 7.28583 10.4082C7.28583 10.0668 7.56893 9.78369 7.91032 9.78369H12.0736C12.415 9.78369 12.6981 10.0668 12.6981 10.4082C12.6981 10.7496 12.415 11.0327 12.0736 11.0327Z" fill="black"/>
</g>
</svg>
